<svg xmlns="http://www.w3.org/2000/svg" viewBox="0 0 4654.15 2371.75"><defs><style>.cls-1{fill:#00bdda;}.cls-2{fill:#b0e6ee;}.cls-2,.cls-3{stroke:#000;stroke-miterlimit:10;stroke-width:40px;}.cls-3{fill:none;}</style></defs><title>Asset 1</title><g id="Layer_2" data-name="Layer 2"><g id="Layer_1-2" data-name="Layer 1"><path class="cls-1" d="M98.65,1019.2c2.16,35.73.68,70.82-2.58,106.41,1.83-20-1.09,6.31-1.48,8.53q-2.09,12.12-4.7,24.14c-4.07,18.72-9.16,37.14-14.92,55.4l110.71-62.86c-17.63-3.83,16.35,12.5,1.79,1.53a35.39,35.39,0,0,1,13.24,13.31q5.59,15.9,3.09,6.53-2.49-10.71,1.42,9.64.72-15.33-2,9.89c1.34-2.35,1.44-6.44,2.36-9.14H32.05q16.73,63.36,32.74,126.92c6.64,26.44,13.17,52.9,19.3,79.47,2.45,10.62,4.86,21.27,7.06,32,.86,4.17,1.53,8.4,2.46,12.55.64,2.87,2,10.74-.21-2.61q-1.19-11.38-.85-3.77.12,11.33,1-11.2l23.15-39.71-2.94,3.22,39.72-23.14c.32-.12,63.92,13.34,45.65,3.62,11.08,5.89,16.06,13.72,21.62,24,6.24,11.59,1.47,3.43.71-1-1.64-9.53-.11,23.45,1.42,6.76a88.32,88.32,0,0,0,.24-9.35c-.25-12.42-1.39,9.83-1.9,11.63,1.13-4,1.43-8.32,2.38-12.38l-86.78,66.07,169-13.94c44.09-3.64,96-38.5,90-90-7.29-62.68-24.72-122-61.55-174.21L193,1276.57c8.72,8,17.09,16.3,25,25.1,3.95,4.39,7.78,8.88,11.55,13.43,2.82,3.41,14.59,15.43,1.34,1.29,15.12,16.13,26.8,37,39.75,54.92,32.91,45.53,66.36,87.53,112.19,120.54,88.53,63.77,211.65,72.25,295.45-3,28.4-25.51,34.74-77,14.07-109.06-21.9-34-61.73-51.75-101.64-41.36-51.35,13.36-103.17,23.48-155.61,31.47,9.21-1.4,6.94-.85-.94.1-6.91.83-13.83,1.66-20.76,2.41q-18.7,2-37.45,3.55c-27.79,2.24-55.62,3.55-83.49,4.18l23.93,176.78a427,427,0,0,1,48.41-14.66q12.31-2.89,24.8-5c3.3-.57,7.36-1.81,10.71-1.71-6.89-.22-13.4,1.43-2.39.68,16.88-1.16,33.65-2.07,50.58-1.6q12.66.35,25.28,1.47c2.28.2,9-.22,10.8,1.07q-16.14-2.34-6-.79,3.57.54,7.13,1.18A422.25,422.25,0,0,1,535,1549.18q10.38,3.13,20.59,6.8c4.53,1.63,9,3.45,13.51,5.14,12.14,4.53-13-6.68-1.59-.48,15.16,8.26,30.58,15.46,45.28,24.64q11.12,7,21.84,14.49c3.06,2.14,6,4.5,9.12,6.56,8.78,5.82-10.49-8.81,2.59,1.91,56.15,46,105.71,99.27,156.29,151.19l85.74,88,41.39,42.48c5.67,5.82,11.38,11.6,17,17.47,2.95,3.08,5.68,6.45,8.74,9.4,8.22,7.88-7.79-12.87-2.47-3,5.83,10.79-4.21-16.41-1.39-4.43,3,12.84-2.11-19.4-1.3-8,.79,11,5.82-18.53,1.08-8.44a47.15,47.15,0,0,0-3.06,10.3c-1.83,11.15,8-16.46,2.86-6.11-1.68,3.35-3.16,6.81-4.77,10.2-3.19,6.73-6.48,13.4-9.55,20.19-23.17,51.13-30.21,98.71-4.44,151.12l155.42-90.84C960.35,1801.82,815,1628.2,652.92,1471.44l-87.57,150.42c20.57,2.88,39.63,8.35,59.32,14.74,14.22,4.62-4.77-1.66-6.29-2.94,3.56,3,10.64,4.84,14.86,6.95,9.83,4.89,19.41,10.29,28.74,16.07,7.87,4.86,15.56,10,23.1,15.35,3.25,2.31,9.72,9.12,13.53,10-9.32-2-12.94-10.37-4.89-3.63,16.91,14.16,33.54,28.48,49.66,43.54,66.08,61.77,127.67,128.49,203.83,178.44,99.8,65.46,218.6,78.78,334.86,87.61,120.68,9.15,242,8.23,362.67-.33,61.85-4.39,123.54-10.82,185-18.85,33.13-4.33,66.24-8.89,99.26-14q20.89-3.19,41.74-6.64c8.33-1.38,16.69-2.68,25-4.22,26.2-4.83-17.71-.46,5.13-.59,7,0,13.95-.45,21-.16,1.21,0,23.76,2.4,8.63.31-14.9-2,6.48,1.56,7.82,1.87,6.19,1.42,12.14,3.55,18.28,5.08,11.75,3-1.6,4.51-5.26-2.7.38.73,12.59,7.37,13.66,7.42-10.8-.57-14.38-13.41-7.72-5.83q-14.12-20.37-7.3-9.39-14.23-25.52-7.76-52.55c4.56-17.28,8-18.15,3.46-10.69,12.79-20.86,8-10.31,1.68-4.38-17.69,16.58,14.71-9.43-4,3.38q-7.17,4.89-14.65,9.32c-3.45,2-6.94,4-10.49,5.93-5.93,3.15-22.32,8.69-7.21,3.71-13.33,4.4-26.55,7.65-40.16,10.95-8.44,2.05-10.54-2.53,6.31-.55-4.59-.54-10.57,1.07-15.24,1.34-10.21.6-20.38.35-30.58.06-18.38-.51-36.76-.55-55.14-.51-58.92.13-117.84,1.33-176.75,2.59-226.41,4.86-452.77,12-679.14,18.56-45,1.31-82.37,33.25-88.39,78-6.32,47.06,22.06,82.29,64.47,98.75,145.42,56.44,304.26,39.58,436-42.56,49-30.58,94.09-67.38,145-95,9-4.89,18.2-9.32,27.44-13.71,2.24-1.07,5.56-2,7.48-3.34,1.26-.91-20.51,8-12,5.09,5.84-2,11.53-4.56,17.35-6.66A467.44,467.44,0,0,1,1681.1,1930c11-2.27,22.16-3.6,33.18-5.73,1.65-.32-22.34,2.53-12.45,1.73,3.11-.26,6.21-.72,9.32-1q10.74-1.12,21.51-1.87c25.76-1.8,51.61-2.11,77.42-1.37,30.25.86,60.45,3.18,90.53,6.42q11.07,1.2,22.1,2.55c4.21.51,8.73.83,12.92,1.64-2.53-.49-20.81-3-4.13-.51,18.45,2.74,36.88,5.54,55.26,8.67,165.63,28.19,326.59,72.57,484.11,130.81,89.55,33.1,177.87,69.38,266.09,105.84,5.1,2.1,10.31,4.07,15.33,6.33-8.74-3.94-13.85-6-2.18-.56q11.29,5.28,22.26,11.2c8.3,4.5,16.46,9.28,24.37,14.43,3.49,2.28,6.89,4.68,10.33,7,10.75,7.35-2.41.54-3.58-2.83,1.92,5.54,15,13.77,19.37,18.4l1.95,2.14q7.38,8.86,0-.23-6.15-8.16-2.18-2.29,2.29,3.42,4.26,7c6.8,10-5.9.54-2.46-6.85-.2.44,2.51,9.88,2.93,10.18-6.43-4.56-.7-20.51-1.28-8.05-.81,17.46,4.79-20.89.69-1.66L2959,2177.59a3226.65,3226.65,0,0,0-751.59-319.19c-45.28-12.75-100,15.66-110.71,62.86-11.8,51.83,15.86,92.14,62.86,110.71,233.17,92.12,472.13,181.29,726.81,176.78,253.75-4.49,497.06-86.17,733.93-169.69,37.67-13.29,77.32-27.51,104.31-58.66,26.24-30.28,41-67.67,40.74-108-.23-31.39-8.94-61.88-17.93-91.62-3.53-11.69-7.11-23.39-9.71-35.34l-1.21-5.88q-2.53-14.91.77,6.36c-2,1.12,4.25-41.12-1.82-4.75l-164.5,21.5c12.87,22.79,24.85,46,35.64,69.88q3.22,7.14,6.33,14.36c-7.12-16.52,0,.52,1.35,3.9q7.16,18.27,13.46,36.85a860.63,860.63,0,0,1,35.73,148.57l62.86-110.71c-282.35,55.56-561.67,139.06-825.5,254.55-34,14.88-53.28,67.48-41.36,101.64h0c15.25,43.71,62.17,79.56,110.71,62.86,109.39-37.61,217.24-79.61,327-116.49C3553,2142.1,3812,2065.49,4074,2000.39q197-49,395.78-90l-110.71-110.72q-14.56,100.33-38,199l110.71-62.85c-191.84-43.12-390.48-54.3-585.55-28.78l90,90c.82-24.85-4.28,10.51-.53-3,1.28-4.57,2.08-9.28,3.51-13.83,8.23-26.24-10.35,17-.12,0,2.22-3.71,4.45-7.44,6.65-11.16,9.77-16.48-15.4,16.34-2.07,2.69,3.91-4,7.6-8.08,11.73-11.86,7.42-6.78,18-9.85-5,3.14,9.84-5.56,18.7-12.87,28.73-18.31,5-2.69,10-5.13,15.11-7.62,18.25-9-16.6,6-3.71,1.38,12.1-4.34,24-8.87,36.36-12.54a620.72,620.72,0,0,1,75.76-17c6.61-1.09,13.28-1.92,19.89-3-30.52,5.14-9.19,1.24-1.57.36q22.53-2.6,45.14-4.22c26.73-2,53.51-3,80.31-3.37,46.48-.64,93,.74,139.4,3.73,27.39,1.76,54.79,4,82.05,7.22,46.92,5.61,92-45.4,90-90-2.4-53.56-39.73-84-90-90-73.31-8.77-147.67-12-221.45-11-120.38,1.66-252.32,12.2-359.77,71.52-78.27,43.22-127.42,116.44-130.41,206.87-1.46,44.08,42.68,96.19,90,90a1609.41,1609.41,0,0,1,278.93-12.34q37.2,1.62,74.31,5,17.7,1.61,35.36,3.6c6.37.72,12.73,1.59,19.1,2.28,11.52,1.26-15.45-2.31,2.19.28,42.9,6.3,85.5,14,127.81,23.55,46.14,10.36,99-13.7,110.71-62.86q23.43-98.64,38-199c4.78-32.92,1.7-62.73-23.14-87.57-23.82-23.82-55.52-29.76-87.57-23.14q-387.08,79.85-767,190.24-313.14,91.4-620.26,202.22c-37.53,13.58-74.63,28.72-112.36,41.69L3033,2233.88h0l-41.36,101.64c-31.63,13.84-1.93.86,5-2q13.21-5.47,26.47-10.85,22.74-9.21,45.57-18.16,49.47-19.38,99.45-37.47,98-35.46,197.75-65.92a4126.23,4126.23,0,0,1,408.29-102c20.31-4,44.24-23.29,53.79-41.36,12.05-22.81,12.88-44,9.07-69.35-16.72-111.2-55.41-218.7-110.65-316.56-17.73-31.4-54.82-47.65-89.68-43-32.22,4.33-69,29.83-74.82,64.47-5.89,35.25-5.37,64.82,2.26,100,4.74,21.8,12.59,42.74,18.21,64.31,1,3.71,1.66,7.64,2.75,11.33,5.54,18.84.26-20.89.05-1.89-.05,4.26-2.62,18.67,1.14,3.82,4.44-17.49-2.12,1.52-1.6,3.17l4.76-11.91q-7.26,11.46,3.48-4.11c2.5-2.43,16.35-9.18,2.64-2.11l-5.8,3.23q-13.53,6.4,3.05-1c.06.54-20.1,7.21-20.37,7.31-111.8,39.4-224,78.29-338.55,108.89-55.6,14.84-111.76,27.72-168.48,37.52-14.78,2.55-29.62,4.7-44.44,7-15.78,2.47,21.64-2.36-4.41.55-8.12.91-16.22,1.91-24.34,2.76-29.76,3.09-59.63,5.2-89.53,6.13a1135.75,1135.75,0,0,1-170.67-7.89c21.24,2.54-5.31-.84-8-1.25q-8-1.23-15.9-2.55-21.83-3.66-43.53-8.08c-29-5.87-57.74-12.69-86.3-20.27-126.8-33.61-249.08-81.78-370.91-129.91L2159.56,2032q95.71,27,189.61,59.79,45,15.81,89.56,33,22.28,8.6,44.39,17.53,11.07,4.47,22.1,9,7.35,3,14.69,6.11-12.09-5.13-3.19-1.34c120.57,52.21,238,110.64,351.43,176.94,47.77,27.92,120,3.64,132.21-53.78C3043.5,2077,2796,2007,2654.19,1950.12c-164.71-66.08-331.62-124.45-505.5-161.26-136.67-28.94-280.52-56.33-420.87-45.45-114.46,8.87-215.11,45.36-309.52,110.47-28.68,19.77-56.91,40.24-86.82,58.17-15.39,9.22-31.22,17.45-47.4,25.18-2.26,1.07-12.07,4.93-.45.33,13.35-5.3-3.66,1.25-6.49,2.28q-14.94,5.43-30.32,9.54-12.79,3.39-25.83,5.82c-4.19.78-9.14,2-13.49,2.24,22-1.22,4.14-.87-.71-.49-23.26,1.8-45.85.07-69-.83-13.54-.53,15.47,2.82,2.48.5-5.67-1-11.37-1.86-17-3q-14.37-2.84-28.52-6.63a489.81,489.81,0,0,1-50.49-16.69l-23.93,176.78c215.9-6.3,431.8-13,647.74-17.87,65.14-1.48,130.3-2.88,195.46-3.23,56.48-.3,112.33,3.86,168-9.54,50.65-12.2,96.1-37.39,135.83-70.48,56.75-47.26,72-128.44,17.27-183.93-43.41-44-117-60.57-176.66-59-34.12.9-68.05,8.85-101.66,14.24q-20.88,3.35-41.78,6.46-12.54,1.86-25.1,3.64c-1.48.21-28.93,3.84-9.59,1.36-128.53,16.52-257.87,26.43-387.52,25.62q-92.82-.57-185.41-8.51c-16.44-1.44-32.87-3-49.28-4.91.21,0-25.42-3.21-11.51-1.31s-11.65-1.86-11.44-1.82c-31.36-5.13-61.07-13.26-91.27-22.89-23.5-7.49,11.85,6.58-5.52-2.11-5.11-2.56-10.28-4.94-15.34-7.59-11.81-6.19-23.27-13-34.41-20.34-3.61-2.36-28.84-18.3-28.16-19.92l9.06,7q-4.55-3.59-9-7.26-6.76-5.52-13.4-11.2c-38.72-33.11-74.26-69.68-111-104.88-76.14-72.86-164.4-145.23-272.28-160.35-38.73-5.43-81.49,3.23-101.63,41.36-18.53,35.06-15.47,80.5,14.07,109.07q116,112.18,220.55,235.34,25.42,30,50.12,60.67,12.35,15.32,24.5,30.79c-.25-.32,14.26,18.23,7.48,9.52-6.94-8.92,6.08,7.94,7.35,9.61q50.1,65.73,96.77,133.95c26.57,38.76,80.25,59.94,123.14,32.29,43.38-28,54.55-77.84,32.28-123.13,4.41,9,6.56,16.85,6.64,26.71-.09-11.08,2.52,1.56-2.31,9.51,2.34-3.85,4-12.94,5-17.19,2.13-8.57-3.21,8.69-3.81,9,1.15-.65,3.88-8.22,4.77-10.07,3.23-6.78,6.54-13.51,9.58-20.37,21.09-47.46,30.71-93.82,9.75-143.5-17.39-41.22-53.48-72-84.15-103.52l-91.66-94.07C828.29,1527.9,714,1401.51,547.77,1366.69c-92.39-19.36-190.13-15.74-279.24,16.65-42.49,15.45-70.72,52.19-64.46,98.75,5.78,43.05,43.35,79.05,88.39,78A1512.56,1512.56,0,0,0,638.56,1512L551,1361.56c-11,9.86,4.39-3.18,4.45-3.08.28.43-9.94,5.45-9.86,5.75-.47-1.9,19.84-5.88,5.83-2.68-1.11.25-10.72,2.18-10.93,2.83.66-2.05,21.47-1,7-1-4.85,0-9.63.3-14.49.08-2.92-.13-16.82-1.46-2.72.14s.2-.39-2.79-1.08c-8-1.87-15.58-4.73-23.41-7.12-11.19-3.42,14.59,7.6,4.36,1.77-3.6-2-7.46-3.71-11.1-5.72-7.32-4-14-8.85-21.11-13.24-9.95-6.17,11.91,10.8,3.59,2.74-3.63-3.51-7.61-6.68-11.24-10.21-6.78-6.61-13.2-13.61-19.41-20.75-3.11-3.57-6.1-7.25-9.15-10.88-6.36-7.56-4.06-3.89.89,1.43-12.71-13.64-22.68-31.1-33.52-46.24-26.44-37-53.49-74.2-87.1-105-33.26-30.5-81.9-35.06-118.17-7-32.88,25.4-49.17,79.31-23.18,116.1,5.65,8,11.05,16.14,15.9,24.67,2.42,4.26,4.54,8.67,6.9,13,8.15,14.85-2-8,1.22,2,3.05,9.33,6.48,18.43,9,28q1.84,7.11,3.31,14.3c.92,4.56,3.08,22.18.67,1.46l90-90-169,13.94c-38.58,3.18-77.3,25.59-86.79,66.07-16.4,70-3.67,147,62.91,186.42,63,37.27,147.29,4.59,157.43-70.88,3.79-28.2-1.65-55.72-7.59-83.28-16.62-77-37.09-153.15-57.18-229.26-9.69-36.74-47.88-67.81-86.78-66.07-41.42,1.86-73.46,27-86.79,66.07-27,79.13,23.84,171.86,105.78,189.67,48.87,10.63,95.4-14.34,110.71-62.86a675.37,675.37,0,0,0,30.11-242.33c-2.83-46.9-39.36-92.26-90-90-46.32,2.08-93,39.67-90,90Z"/><polygon class="cls-2" points="556.91 349.45 161.91 873.42 381.58 1389.34 659.69 1369.19 1125.22 1899.21 2151.01 1802.48 2894.66 2112.84 3668.54 1873.02 3610.09 1538.48 3753.18 1860.92 4553.26 1744.04 4541.16 1240.21 4629.84 1078.99 4333.59 744.45 4321.5 536.87 3487.16 117.69 2350.53 111.64 2279.99 155.98 1957.55 20.95 556.91 349.45"/><path class="cls-3" d="M159.89,885.52l-139,312.37,62.47,320.43,409.11,48.37,493.75,576.38,1189-90.69L2939,2350.64l902.85-264,646.92,8.06q33-169,66.07-338"/><line class="cls-3" x1="374.84" y1="1386.65" x2="83.31" y2="1518.32"/><line class="cls-3" x1="661.84" y1="1393.65" x2="492.42" y2="1566.69"/><line class="cls-3" x1="1115.15" y1="1895.18" x2="986.17" y2="2143.07"/><line class="cls-3" x1="2144.97" y1="1806.51" x2="2148.07" y2="2065.19"/><line class="cls-3" x1="2888.62" y1="2106.79" x2="2939" y2="2350.64"/><path class="cls-3" d="M3720.84,2121.65q-26-123.5-52-247"/><line class="cls-3" x1="3752.84" y1="1857.65" x2="3797.84" y2="2094.65"/></g></g></svg>